<svg xmlns="http://www.w3.org/2000/svg" xmlns:xlink="http://www.w3.org/1999/xlink" viewbox="0 0 120 120" width="120" height="120" stroke="currentColor" fill="currentColor"><path d="M100 50h-15V44.3c8.6-2.3 15-10 15-19.3h-15V20c0-2.8-2.3-5-5-5H40c-2.8 0-5 2.3-5 5v5H20c0 9.3 6.4 17.1 15 19.3V50H20c0 9.3 6.4 17.1 15 19.3V75H20c0 9.3 6.4 17.1 15 19.3V100c0 2.8 2.3 5 5 5h40c2.8 0 5-2.3 5-5v-5.7c8.6-2.3 15-10 15-19.3h-15v-5.7c8.6-2.3 15-10 15-19.3z m-25 45H45V25h30v70z m-15-5c4.1 0 7.5-3.4 7.5-7.5S64.1 75 60 75s-7.5 3.4-7.5 7.5 3.4 7.5 7.5 7.5z m0-22.5c4.1 0 7.5-3.4 7.5-7.5s-3.4-7.5-7.5-7.5-7.5 3.4-7.5 7.5 3.4 7.5 7.5 7.5zM60 45c4.1 0 7.5-3.4 7.5-7.5S64.1 30 60 30s-7.5 3.4-7.5 7.5S55.9 45 60 45z"  /></svg>